<svg xmlns:rdf="http://www.w3.org/1999/02/22-rdf-syntax-ns#" xmlns="http://www.w3.org/2000/svg" xmlns:cc="http://creativecommons.org/ns#" xmlns:xlink="http://www.w3.org/1999/xlink" xmlns:dc="http://purl.org/dc/elements/1.1/" xmlns:svg="http://www.w3.org/2000/svg" id="svg2" viewBox="0 0 610 610" version="1.1">
  <g id="layer4" transform="translate(5 -397.36)">
    <path id="path3200" d="m371.13 638.67c42.63 26.287 44.316 80.982 54.27 142.1 7.3876 2.1617 35.128-115.85 19.6-130.08 53.312 30.809 47.943 95.128 44.589 94.132 34.583-73.523 27.345-122.53-26.46-168.4-1.96-8.0414 47.039-1.4191 47.039-1.4191-29.963-38.346-62.973-58.462-99.469-57.709-4.8645-13.595 5.2166-25.387 9.7999-37.842-20.538 6.8672-41.202 13.661-48.999 27.909-18.732-9.4589-30.061-22.815-75.949-17.975 12.936 13.546 28.165 26.108 29.89 44.464-64.172-7.1856-97.309 50.864-133.28 109.27 47.555-31.17 87.093-73.653 157.29-24.597-10.221 8.7414-18.26 15.856-24.365 29.976-3.7454 2.043-2.8563-3.1248-4.793-1.3348-7.8358 19.044-16.69 38.744-23.68 58.206l-3.3925 0.0773s-10.488 52.065-12.035 63.018-1.0918 4.8451-2.3974 15.86c-1.0084-0.17544-1.6596-0.68139-4.5726-0.66892-1.562 10.949-1.7929 78.125-4.1091 88.882 24.5-0.15767 25.187 0.15769 49.686 0 0.64731-10.206-4.2024-81.472-0.6911-92.013-6.7786-1.0806 2.619 0.74517-2.9301-0.20041 2.3479-24.473 12.423-73.963 12.423-73.963l-2.7191-1.2936c4.4574-19.384 21.688-34.882 26.455-45.665-4.0784-2.6317-4.3475-0.12589-2.4399-2.6043 7.0283-9.1314 17.096-20.312 21.239-18.132z" fill="#070304"/>
    <path id="path3634" d="m39.78 899.68c0.34436 18.973 1.0396 24.322 1.0396 56.926l504.18 0.75v-64.158c-97.124-26.656-197.11-60.656-321.2-41.006-71.104 11.26-121.44 24.724-184.02 47.48z" fill="#070304"/>
    <path id="path4740" d="m153.77 753.43c-2.5404 12.868-1.9056 27.199-1.1023 42.507-7.4138-13.044-14.239-23.364-18.686-28.446 0.23903 9.4849 1.7661 19.576 3.8716 30.166-10.225-16.71-20.601-30.55-25.972-35.624 2.5061 15.669 9.5802 31.101 16.186 48.368-6.5404-7.5545-12.269-13.367-16.105-16.401 1.0409 6.4352 3.0551 12.873 5.6192 19.439-8.7655-12.03-16.806-21.481-21.643-25.73 2.8688 19.694 9.5521 32.511 17.96 55.251-16.574-19.71-30.916-30.056-38.232-35.382 10.699 18.5 24.562 48.864 34.576 69.044 35.121-9.9934 70.555-17.601 113.57-24.413 2.3391-0.37042 4.6537-0.71534 6.9636-1.0486 4.4835-13.036 8.6591-30.084 14.223-43.798-7.0577 5.7109-21.997 23.15-35.329 43.072 8.4365-22.963 15.598-44.111 22.181-62.726-4.651 4.0849-12.253 12.963-20.622 24.332 7.073-17.139 14.262-32.794 16.535-48.395-8.0868 7.1024-25.087 28.671-39.55 52.697 2.0292-21.179 5.4424-40.711 3.065-58.101-4.9248 8.1621-13.143 28.673-19.896 51.891-5.4624-25.044-12.959-47.789-17.611-56.703z" fill="#070304"/>
  </g>
  <metadata>
    <rdf:RDF>
      <cc:Work>
        <dc:format>image/svg+xml</dc:format>
        <dc:type rdf:resource="http://purl.org/dc/dcmitype/StillImage"/>
        <cc:license rdf:resource="http://creativecommons.org/licenses/publicdomain/"/>
        <dc:publisher>
          <cc:Agent rdf:about="http://openclipart.org/">
            <dc:title>Openclipart</dc:title>
          </cc:Agent>
        </dc:publisher>
        <dc:title>eco green tourism icon</dc:title>
        <dc:date>2013-09-29T21:06:58</dc:date>
        <dc:description/>
        <dc:source>http://openclipart.org/detail/183968/eco-green-tourism-icon-by-dominiquechappard-183968</dc:source>
        <dc:creator>
          <cc:Agent>
            <dc:title>dominiquechappard</dc:title>
          </cc:Agent>
        </dc:creator>
        <dc:subject>
          <rdf:Bag>
            <rdf:li>ecology</rdf:li>
            <rdf:li>environement</rdf:li>
            <rdf:li>green</rdf:li>
            <rdf:li>holyday</rdf:li>
            <rdf:li>tourism</rdf:li>
            <rdf:li>travel</rdf:li>
          </rdf:Bag>
        </dc:subject>
      </cc:Work>
      <cc:License rdf:about="http://creativecommons.org/licenses/publicdomain/">
        <cc:permits rdf:resource="http://creativecommons.org/ns#Reproduction"/>
        <cc:permits rdf:resource="http://creativecommons.org/ns#Distribution"/>
        <cc:permits rdf:resource="http://creativecommons.org/ns#DerivativeWorks"/>
      </cc:License>
    </rdf:RDF>
  </metadata>
</svg>
